Coordinates
version=1
nRows=14
nColumns=42
inDegrees=yes

Units are S.I. units (second, meters, Newtons, ...)
If the header above contains a line with 'inDegrees', this indicates whether rotational values are in degrees (yes) or radians (no).

endheader
time	pelvis_tilt	pelvis_list	pelvis_rotation	pelvis_tx	pelvis_ty	pelvis_tz	hip_flexion_r	hip_adduction_r	hip_rotation_r	knee_angle_r	knee_adduction_r	knee_angle_r_beta	ankle_angle_r	subtalar_angle_r	mtp_angle_r	hip_flexion_l	hip_adduction_l	hip_rotation_l	knee_angle_l	knee_adduction_l	knee_angle_l_beta	ankle_angle_l	subtalar_angle_l	mtp_angle_l	lumbar_extension	lumbar_bending	lumbar_rotation	arm_flex_r	arm_add_r	arm_rot_r	elbow_flex_r	pro_sup_r	wrist_flex_r	wrist_dev_r	arm_flex_l	arm_add_l	arm_rot_l	elbow_flex_l	pro_sup_l	wrist_flex_l	wrist_dev_l
      0.20000000	     16.52322383	      9.84504368	      7.63556061	     -1.38842072	      0.89657942	     -0.13027475	     17.69539147	    -15.35496517	    -39.74394082	     30.93496463	     -8.44453387	      0.53991699	     23.93517988	     32.52205419	     -9.49515822	    -29.78696902	     11.41400091	    -13.32706253	     20.64328866	    -10.71714373	      0.36029336	     31.39660020	     35.88147996	     -9.49515822	    -44.45473821	     -1.60143206	    -10.11324930	      1.38527736	    -10.05759755	     -4.36466766	     39.15103415	     90.00000001	      0.00000000	      0.00000000	     23.94297542	    -16.71009488	     -3.25830489	     57.39350323	     90.00000001	      0.00000000	      0.00000000
      0.21000000	     16.28465681	      9.66743744	      7.70716425	     -1.37378408	      0.89537048	     -0.12984982	     17.82468033	    -14.79151058	    -39.74337928	     31.53082927	     -9.11788565	      0.55031679	     23.23133019	     32.46909777	     -9.45979127	    -29.81437441	     10.82943011	    -13.68733879	     21.90286506	    -10.83252322	      0.38227711	     30.57256910	     35.90044337	     -9.45979127	    -43.89466639	     -1.42250610	     -9.93077409	      1.36669853	    -10.27557877	     -4.42805800	     38.85916129	     90.00000001	      0.00000000	      0.00000000	     23.62683811	    -16.55311221	     -3.23980812	     57.57098622	     90.00000001	      0.00000000	      0.00000000
      0.22000000	     16.09270486	      9.38823618	      7.74661606	     -1.35892104	      0.89440612	     -0.12929541	     17.92810650	    -14.10024132	    -39.73933638	     32.30736034	    -10.01615280	      0.56386981	     22.25340494	     32.44965815	     -9.39933741	    -29.82948613	     10.14225138	    -14.01833841	     23.24795335	    -10.93337044	      0.40575333	     29.44817907	     36.03560325	     -9.39933741	    -43.33901376	     -1.16384617	     -9.73305126	      1.50412987	    -10.44224113	     -4.58498082	     38.37409614	     90.00000001	      0.00000000	      0.00000000	     23.05795954	    -16.40189228	     -3.43510578	     57.89563957	     90.00000001	      0.00000000	      0.00000000
      0.23000000	     15.95068087	      9.07723776	      7.76122617	     -1.34398251	      0.89364137	     -0.12872788	     18.06911898	    -13.45606802	    -39.73311715	     33.49246215	    -11.05912136	      0.58455374	     21.76709710	     32.39045519	     -9.38404532	    -29.83851029	      9.47023502	    -14.10835888	     24.70018883	    -11.01815551	      0.43109962	     28.62482793	     35.86081703	     -9.38404532	    -42.83110987	     -0.85301869	     -9.46800415	      1.53262577	    -10.67739401	     -4.67726383	     38.22255196	     90.00000001	      0.00000000	      0.00000000	     22.50112359	    -16.22711664	     -3.48022182	     57.87139437	     90.00000001	      0.00000000	      0.00000000
      0.24000000	     15.93014962	      8.68989225	      7.68453679	     -1.32902035	      0.89335286	     -0.12809253	     18.05440387	    -12.77369364	    -39.72228122	     34.72659805	    -12.07670589	      0.60609347	     20.88160249	     32.34696262	     -9.34349798	    -29.84695551	      8.77026935	    -14.49903054	     26.25659318	    -11.24569377	      0.45826400	     26.15971919	     35.50997734	     -9.34349798	    -42.44818588	     -0.49675301	     -9.15651159	      1.77774043	    -10.88975519	     -4.87256523	     37.76977153	     90.00000001	      0.00000000	      0.00000000	     21.78211543	    -15.96896061	     -3.82107004	     58.12043526	     90.00000001	      0.00000000	      0.00000000
      0.25000000	     16.01107067	      8.26703405	      7.57916955	     -1.31418567	      0.89342319	     -0.12746748	     17.92820252	    -12.12993625	    -39.70764157	     36.13761403	    -13.04508999	      0.63072035	     20.47930069	     32.19431976	     -9.31098652	    -29.84736476	      8.08979613	    -14.65974622	     27.97579133	    -11.46874153	      0.48826967	     23.99951318	     34.91214250	     -9.31098652	    -42.19677512	     -0.07077585	     -8.80678940	      2.02990444	    -11.15062450	     -5.03415159	     37.49614545	     90.00000001	      0.00000000	      0.00000000	     21.05965395	    -15.70135000	     -4.09309037	     58.16983304	     90.00000001	      0.00000000	      0.00000000
      0.26000000	     16.21059093	      7.77782705	      7.45497419	     -1.29949132	      0.89396928	     -0.12679573	     17.56317591	    -11.42725196	    -39.68575015	     37.46042163	    -13.87364348	      0.65380770	     20.36302482	     31.90258915	     -9.27896795	    -29.84561638	      7.37839311	    -14.67076969	     29.81856070	    -11.70875936	      0.52043206	     21.43179926	     34.01333833	     -9.27896795	    -42.10953976	      0.42731456	     -8.43227653	      2.33394652	    -11.42932262	     -5.16191965	     37.31048869	     90.00000001	      0.00000000	      0.00000000	     20.30301542	    -15.42243934	     -4.36399544	     58.14392694	     90.00000001	      0.00000000	      0.00000000
      0.27000000	     16.53945832	      7.26192628	      7.29967859	     -1.28499195	      0.89487428	     -0.12599818	     16.96427793	    -10.76841745	    -39.65805418	     38.79757896	    -14.45982160	      0.67714549	     20.36979443	     31.77620449	     -9.26559674	    -29.83783768	      6.59612415	    -14.60304689	     31.84946423	    -11.82089012	      0.55587802	     19.67951019	     33.43170248	     -9.26559674	    -42.18858180	      0.91791182	     -8.01482292	      2.66685031	    -11.72869116	     -5.22899994	     37.28899902	     90.00000001	      0.00000000	      0.00000000	     19.58362039	    -15.21151081	     -4.46702434	     57.97353611	     90.00000001	      0.00000000	      0.00000000
      0.28000000	     16.97734019	      6.73871175	      7.22252878	     -1.27078340	      0.89649275	     -0.12543634	     15.92616068	    -10.05310488	    -39.62382083	     39.65216970	    -14.72566133	      0.69206092	     21.04358863	     30.81528934	     -9.19247005	    -29.83685845	      5.99972204	    -13.79587134	     33.96123562	    -12.00383610	      0.59273538	     15.67779434	     30.55452330	     -9.19247005	    -42.46008921	      1.53508274	     -7.66278505	      3.07833060	    -12.00585214	     -5.18142236	     37.23247909	     90.00000001	      0.00000000	      0.00000000	     18.80073521	    -14.82069241	     -5.00293962	     57.91261306	     90.00000001	      0.00000000	      0.00000000
      0.29000000	     17.63281237	      6.05547497	      7.14440874	     -1.25682447	      0.89851419	     -0.12475514	     14.45039671	     -9.07903413	    -39.59833993	     40.11175205	    -14.81733220	      0.70008214	     21.72193446	     30.64804168	     -9.16317204	    -29.82355283	      5.05760221	    -13.62119594	     36.26783932	    -12.20542782	      0.63299321	     13.23287975	     29.33359731	     -9.16317204	    -42.96830603	      2.29529483	     -7.18838827	      3.51550039	    -12.36723174	     -5.14202232	     37.38434856	     90.00000001	      0.00000000	      0.00000000	     18.09262465	    -14.56026243	     -5.07270729	     57.65483435	     90.00000001	      0.00000000	      0.00000000
      0.30000000	     18.31968223	      5.56658626	      7.03537967	     -1.24334412	      0.90087594	     -0.12423169	     12.82006843	     -8.42313256	    -39.57269162	     40.50995791	    -14.63429979	      0.70703215	     22.58646267	     30.33743784	     -9.05911555	    -29.79604996	      4.50575394	    -12.48458752	     38.61953227	    -12.08223414	      0.67403799	     10.89497450	     26.47418166	     -9.05911555	    -43.60741669	      2.85691182	     -6.77176577	      3.91097463	    -12.82050678	     -4.64275715	     37.81691789	     90.00000001	      0.00000000	      0.00000000	     17.47315727	    -14.25622095	     -5.25451816	     57.33867971	     90.00000001	      0.00000000	      0.00000000
      0.31000000	     19.17795688	      5.08630836	      6.91745293	     -1.23022776	      0.90347668	     -0.12377805	     10.83355867	     -7.78914431	    -39.56201395	     40.65176794	    -14.22588392	      0.70950720	     23.17714877	     30.46573593	     -9.04664605	    -29.74058875	      3.87537566	    -12.22634074	     40.93762498	    -12.29994692	      0.71449634	      9.73810413	     26.08755956	     -9.04664605	    -44.47450521	      3.39243039	     -6.33351265	      4.47724307	    -13.15843778	     -4.60118499	     38.05828788	     90.00000001	      0.00000000	      0.00000000	     16.88166467	    -14.03212591	     -5.22139565	     57.06803825	     90.00000001	      0.00000000	      0.00000000
      0.32000000	     20.08094995	      4.55543667	      6.75821004	     -1.21745731	      0.90643512	     -0.12329232	      8.62154698	     -6.88703333	    -39.56772169	     40.19231172	    -13.92587303	      0.70148817	     24.65352359	     30.68887909	     -8.96732609	    -29.64197479	      3.32305769	    -11.33985857	     43.28764306	    -12.12547398	      0.75551190	      8.08176635	     23.36096912	     -8.96732609	    -45.42803569	      3.97595962	     -5.79753131	      4.81797413	    -13.75551757	     -3.79336232	     38.97351858	     90.00000001	      0.00000000	      0.00000000	     16.33377104	    -13.73970965	     -5.19079159	     56.63487933	     90.00000001	      0.00000000	      0.00000000
      0.33000000	     21.01498641	      4.07785017	      6.68009094	     -1.20498924	      0.90941654	     -0.12291452	      6.26180344	     -6.08286598	    -39.58243272	     39.59044103	    -13.41670245	      0.69098355	     25.46761913	     30.88041312	     -8.94335484	    -29.36632759	      2.70273284	    -11.18014562	     45.57982283	    -12.27084788	      0.79551798	      7.81561741	     22.75215627	     -8.94335484	    -46.45143986	      4.50822994	     -5.35289214	      5.44840069	    -14.13467600	     -3.59301711	     39.36021091	     90.00000001	      0.00000000	      0.00000000	     15.76488315	    -13.51523732	     -5.12704088	     56.30391136	     90.00000001	      0.00000000	      0.00000000
